<svg width="225" height="225" viewBox="0 0 225 225" fill="none" xmlns="http://www.w3.org/2000/svg">
<path d="M225 112.5C225 174.632 174.632 225 112.5 225C50.368 225 0 174.632 0 112.5C0 50.368 50.368 0 112.5 0C174.632 0 225 50.368 225 112.5Z" fill="url(#paint0_linear_38_472)"/>
<path d="M111.606 153.72C111.974 152.982 113.026 152.982 113.394 153.72L131.826 190.582C132.158 191.247 131.675 192.03 130.931 192.03H94.0685C93.3251 192.03 92.8416 191.247 93.174 190.582L111.606 153.72Z" stroke="white" stroke-width="4"/>
<path fill-rule="evenodd" clip-rule="evenodd" d="M39.8143 111.297C39.8143 67.9624 72.5706 33.1311 112.622 33.1311C152.674 33.1311 185.43 67.9624 185.43 111.297C185.43 141.062 169.976 166.815 147.318 180.025C146.112 180.728 145.656 182.263 146.331 183.485C146.995 184.686 148.503 185.132 149.69 184.444C173.999 170.339 190.43 142.8 190.43 111.297C190.43 65.5302 155.753 28.1311 112.622 28.1311C69.4911 28.1311 34.8143 65.5302 34.8143 111.297C34.8143 142.8 51.2452 170.339 75.5541 184.444C76.7407 185.132 78.249 184.685 78.9128 183.485C79.5886 182.263 79.1323 180.728 77.9261 180.025C55.2686 166.815 39.8143 141.062 39.8143 111.297Z" fill="white"/>
<path fill-rule="evenodd" clip-rule="evenodd" d="M59.8639 109.706C59.8639 78.3248 83.5877 53.1807 112.5 53.1807C141.412 53.1807 165.136 78.3248 165.136 109.706C165.136 131.477 153.718 150.247 137.07 159.701C135.831 160.404 135.345 161.972 136.04 163.215C136.695 164.387 138.162 164.838 139.332 164.18C157.694 153.852 170.136 133.26 170.136 109.706C170.136 75.8899 144.489 48.1807 112.5 48.1807C80.5107 48.1807 54.8639 75.8899 54.8639 109.706C54.8639 133.26 67.3064 153.851 85.6681 164.18C86.8381 164.838 88.3044 164.387 88.9593 163.215C89.6544 161.971 89.1684 160.404 87.9293 159.7C71.282 150.246 59.8639 131.477 59.8639 109.706Z" fill="white"/>
<path fill-rule="evenodd" clip-rule="evenodd" d="M83.9231 107.923C83.9231 90.8203 96.8692 77.2402 112.5 77.2402C128.13 77.2402 141.077 90.8203 141.077 107.923C141.077 120.047 134.57 130.402 125.213 135.402C123.888 136.11 123.312 137.767 124.061 139.069C124.69 140.161 126.043 140.617 127.163 140.039C138.407 134.231 146.077 121.957 146.077 107.923C146.077 88.3727 131.196 72.2402 112.5 72.2402C93.804 72.2402 78.9231 88.3727 78.9231 107.923C78.9231 121.957 86.592 134.23 97.8358 140.039C98.9558 140.617 100.31 140.161 100.939 139.069C101.688 137.767 101.111 136.11 99.7869 135.402C90.4298 130.402 83.9231 120.047 83.9231 107.923Z" fill="white"/>
<path d="M97.6632 117.846H94.3938L101.74 97.4324H105.299L112.645 117.846H109.375L103.604 101.14H103.445L97.6632 117.846ZM98.2115 109.852H108.817V112.444H98.2115V109.852Z" fill="white"/>
<path d="M115.593 117.846V97.4324H122.869C124.457 97.4324 125.773 97.7214 126.817 98.2996C127.86 98.8777 128.641 99.6685 129.159 100.672C129.677 101.669 129.936 102.792 129.936 104.041C129.936 105.297 129.674 106.427 129.149 107.43C128.631 108.427 127.847 109.218 126.797 109.802C125.753 110.381 124.441 110.67 122.859 110.67H117.855V108.058H122.58C123.584 108.058 124.398 107.885 125.022 107.54C125.647 107.188 126.106 106.709 126.398 106.104C126.69 105.5 126.836 104.812 126.836 104.041C126.836 103.27 126.69 102.586 126.398 101.988C126.106 101.39 125.644 100.921 125.012 100.582C124.388 100.243 123.564 100.074 122.54 100.074H118.673V117.846H115.593Z" fill="white"/>
<defs>
<linearGradient id="paint0_linear_38_472" x1="112.5" y1="0" x2="112.5" y2="225" gradientUnits="userSpaceOnUse">
<stop offset="0.223958" stop-color="#31A8D4"/>
<stop offset="0.671875" stop-color="#04CAA3"/>
</linearGradient>
</defs>
</svg>
